:SAMPLES-PER-SECOND 30
:FULLY-SPECIFIED
:DEGREES
121
root  19.437 35.7959 11.3987 -176.101 12.0884 168.503
RightUpLeg  -32.4758 -10.3101 -25.11
RightLeg  44.5073 -5.4603 -6.0253
RightFoot  -10.7091 -0.194805 21.784
RightToes  -1.74624e-010 0 -3.6325e-017
Spine  14.6786 -0.432777 3.52326
Spine1  18.8115 -0.803624 2.29109
HEad  -18.457 20.4111 -24.9182
LeftShoulder1  1.40011 -2.84932 -15.2125
LeftArm  23.2824 5.9104 -63.4391
LeftForeArm  90.3401 -79.2357 -100.962
LeftHand  -2.14182 -3.64177 27.3352
RightShoulder  0.594764 0.0426346 9.47483
RightArm  -8.47785 -4.59265 54.0763
RightForeArm  151.238 66.0384 155.853
RightHand  -1.49663 5.85836 -15.6591
LeftUpLeg  -21.3559 4.26218 8.5151
LeftLeg  33.1705 3.36304 2.71551
LeftFoot  -9.22432 0.50641 -24.1827
LeftToes  3.7286e-011 -1.5702e-010 -9.70233e-012
122
root  19.807 35.9844 11.5256 -176.078 11.3362 168.075
RightUpLeg  -31.9823 -9.86136 -24.9964
RightLeg  44.0481 -6.30202 -6.78912
RightFoot  -10.6514 -0.204596 21.613
RightToes  -1.74624e-010 0 -3.6325e-017
Spine  14.2851 -0.878433 3.30445
Spine1  18.6937 -1.24432 2.02459
HEad  -18.71 20.6492 -25.2422
LeftShoulder1  1.36331 -2.77223 -14.8657
LeftArm  20.707 4.17344 -62.4924
LeftForeArm  93.0838 -79.0885 -104.087
LeftHand  -2.12034 -3.35901 27.9055
RightShoulder  0.584371 -0.020048 9.48139
RightArm  -7.86773 -5.42323 55.5186
RightForeArm  152.945 64.889 157.215
RightHand  -1.36367 5.63996 -14.5827
LeftUpLeg  -20.2197 4.19452 8.38295
LeftLeg  30.0488 4.08411 2.89536
LeftFoot  -7.57299 0.825713 -23.4295
LeftToes  3.7286e-011 -1.5702e-010 -9.70233e-012
123
root  20.0934 36.1202 11.6461 -176.103 10.6125 167.948
RightUpLeg  -31.4336 -9.91354 -24.6638
RightLeg  43.6416 -6.70825 -7.10234
RightFoot  -10.8038 -0.176747 21.6373
RightToes  -1.74624e-010 0 -3.6325e-017
Spine  14.03 -1.24334 3.42247
Spine1  18.62 -1.64514 2.04719
HEad  -18.7684 21.0184 -25.4537
LeftShoulder1  1.32525 -2.64721 -14.6715
LeftArm  18.0419 2.14294 -62.3277
LeftForeArm  92.2879 -79.1629 -102.846
LeftHand  -2.11975 -3.21234 28.3507
RightShoulder  0.57703 -0.0872714 9.61199
RightArm  -7.69647 -5.47492 55.9308
RightForeArm  153.228 64.1272 157.966
RightHand  -1.27401 5.41912 -13.9222
LeftUpLeg  -19.3226 2.67615 8.62062
LeftLeg  27.6652 5.32312 3.36636
LeftFoot  -6.34838 1.0591 -23.1265
LeftToes  3.7286e-011 -1.5702e-010 -9.70233e-012
124
root  20.2909 36.2013 11.7664 -176.289 10.1384 167.99
RightUpLeg  -30.9202 -10.4676 -24.2135
RightLeg  43.2799 -6.67677 -6.98477
RightFoot  -10.9921 -0.141016 21.3238
RightToes  -1.74624e-010 0 -3.6325e-017
Spine  14.0559 -1.47988 3.61565
Spine1  18.5601 -1.9534 2.27067
HEad  -18.8542 21.456 -25.5392
LeftShoulder1  1.2913 -2.48185 -14.7011
LeftArm  15.7921 0.560944 -62.4358
LeftForeArm  92.4916 -79.1618 -102.957
LeftHand  -2.14773 -3.18249 28.8017
RightShoulder  0.584476 -0.0466463 9.59286
RightArm  -7.80089 -4.99896 55.7595
RightForeArm  152.499 63.8153 158.173
RightHand  -1.27596 5.32769 -14.0537
LeftUpLeg  -18.6841 0.957649 8.98313
LeftLeg  26.3206 6.32895 3.73584
LeftFoot  -5.5647 1.22612 -23.3516
LeftToes  3.7286e-011 -1.5702e-010 -9.70233e-012
125
root  20.4226 36.2482 11.8875 -176.619 9.98209 168.177
RightUpLeg  -30.5156 -11.0811 -23.7051
RightLeg  42.9782 -6.36524 -6.60949
RightFoot  -11.0232 -0.133969 20.838
RightToes  -1.74624e-010 0 -3.6325e-017
Spine  14.3293 -1.57346 3.88383
Spine1  18.5354 -2.04504 2.38914
HEad  -19.1321 21.726 -25.5605
LeftShoulder1  1.2764 -2.38971 -14.7927
LeftArm  14.3712 -0.202041 -62.4091
LeftForeArm  95.9334 -78.9956 -106.385
LeftHand  -2.20559 -3.28086 29.222
RightShoulder  0.585865 0.014106 9.34513
RightArm  -8.04023 -4.47262 55.5706
RightForeArm  151.994 63.7215 158.205
RightHand  -1.28732 5.32056 -14.1846
LeftUpLeg  -18.2521 0.101476 9.34316
LeftLeg  25.8594 7.32613 4.18848
LeftFoot  -4.91742 1.34617 -23.1879
LeftToes  3.7286e-011 -1.5702e-010 -9.70233e-012
126
root  20.4897 36.2835 11.9871 -176.955 10.0164 168.421
RightUpLeg  -30.1544 -11.5165 -23.282
RightLeg  42.6528 -5.93945 -6.12459
RightFoot  -11.0426 -0.130156 20.6988
RightToes  -1.74624e-010 0 -3.6325e-017
Spine  14.5742 -1.54456 4.23626
Spine1  18.6043 -1.92619 2.32279
HEad  -19.2962 21.7197 -25.5403
LeftShoulder1  1.27487 -2.36291 -14.8724
LeftArm  14.1277 -0.145018 -62.2989
LeftForeArm  99.5775 -78.8326 -109.503
LeftHand  -2.26529 -3.45329 29.4194
RightShoulder  0.57337 -0.0103903 9.07292
RightArm  -8.24042 -4.17525 55.3431
RightForeArm  152.151 63.5901 158.339
RightHand  -1.21445 5.20169 -13.5451
LeftUpLeg  -18.0632 -0.397428 9.60016
LeftLeg  26.0316 8.48127 4.82104
LeftFoot  -4.4904 1.3665 -22.1332
LeftToes  3.7286e-011 -1.5702e-010 -9.70233e-012
